<?xml version="1.0" encoding="UTF-8"?><svg id="Layer_1" xmlns="http://www.w3.org/2000/svg" viewBox="0 0 491 491"><defs><style>.cls-1{opacity:.2;}.cls-1,.cls-2{fill:#fd7e14;}.cls-3{fill:none;stroke:#fd7e14;stroke-miterlimit:10;stroke-width:40px;}</style></defs><rect class="cls-1" x="4.25" y="4.25" width="481.5" height="481.5" rx="44.63" ry="44.63"/><rect class="cls-3" x="20" y="20" width="451" height="451" rx="23.45" ry="23.45"/><path class="cls-2" d="M236.9,316.5h-110.4v-43l65.6-67.4h-65.6v-35.6h110.4v43l-65,67.4h64.8l.2,35.6Z"/><path class="cls-2" d="M275.3,311.9c-9.07-5.07-16.23-11.9-21.5-20.5-5.27-8.6-7.9-18.03-7.9-28.3s2.63-19.5,7.9-28.1c5.27-8.6,12.43-15.4,21.5-20.4,9.07-5,18.93-7.5,29.6-7.5s20.47,2.5,29.4,7.5c8.93,5,16.03,11.8,21.3,20.4,5.27,8.6,7.9,17.97,7.9,28.1s-2.63,19.7-7.9,28.3c-5.27,8.6-12.37,15.43-21.3,20.5-8.93,5.07-18.73,7.6-29.4,7.6s-20.53-2.53-29.6-7.6ZM318.9,277.5c3.87-3.87,5.8-8.6,5.8-14.2s-1.93-10.33-5.8-14.2c-3.87-3.87-8.6-5.8-14.2-5.8s-10.33,1.93-14.2,5.8c-3.87,3.87-5.8,8.6-5.8,14.2s1.93,10.33,5.8,14.2c3.87,3.87,8.6,5.8,14.2,5.8s10.33-1.93,14.2-5.8Z"/></svg>