<?xml version="1.0" encoding="UTF-8"?>
<svg id="Layer_1" data-name="Layer 1" xmlns="http://www.w3.org/2000/svg" viewBox="0 0 500 500">
  <defs>
    <style>
      .cls-1 {
        opacity: .3;
      }

      .cls-1, .cls-2 {
        fill: #d8ff4d;
      }

      .cls-3 {
        fill: none;
        stroke: #d8ff4d;
        stroke-miterlimit: 10;
        stroke-width: 40px;
      }
    </style>
  </defs>
  <rect class="cls-1" x="9.25" y="9.25" width="481.5" height="481.5" rx="44.63" ry="44.63"/>
  <rect class="cls-3" x="25" y="25" width="451" height="451" rx="23.45" ry="23.45"/>
  <g>
    <path class="cls-2" d="M134.2,175.5h61.8c8,0,15.43,1.97,22.3,5.9,6.87,3.93,12.3,9.3,16.3,16.1s6,14.27,6,22.4c0,10.4-3.6,18.67-10.8,24.8,10.93,6.4,16.4,16.33,16.4,29.8,0,8.53-2.1,16.4-6.3,23.6-4.2,7.2-9.9,12.9-17.1,17.1s-15.07,6.3-23.6,6.3h-65v-146ZM199.2,226.3c1.73-1.73,2.6-3.87,2.6-6.4s-.87-4.63-2.6-6.3c-1.73-1.67-3.87-2.5-6.4-2.5h-19.8v17.8h19.8c2.53,0,4.67-.87,6.4-2.6ZM204.5,281.8c1.93-1.93,2.9-4.37,2.9-7.3,0-2.53-1-4.83-3-6.9-2-2.07-4.4-3.1-7.2-3.1h-24.2v20.2h24.2c2.93,0,5.37-.97,7.3-2.9Z"/>
    <path class="cls-2" d="M284.3,316.8c-8.6-5.13-15.43-12.03-20.5-20.7-5.07-8.67-7.6-18-7.6-28s2.53-19.3,7.6-27.9c5.07-8.6,11.9-15.43,20.5-20.5,8.6-5.07,17.96-7.6,28.1-7.6s19.67,2.54,27.8,7.6c8.13,5.07,14.43,11.9,18.9,20.5,4.47,8.6,6.7,17.97,6.7,28.1,0,5.47-.4,10.33-1.2,14.6h-71.4c2.13,3.2,4.87,5.7,8.2,7.5,3.33,1.8,7.2,2.7,11.6,2.7,4.13,0,7.57-.37,10.3-1.1,2.73-.73,5.37-2.1,7.9-4.1l28,14.8c-5.33,7.07-12.07,12.47-20.2,16.2-8.13,3.73-17,5.6-26.6,5.6-10.13,0-19.5-2.57-28.1-7.7ZM324.4,247.4c-3.47-1.93-7.27-2.9-11.4-2.9s-7.93.97-11.4,2.9c-3.47,1.93-6.27,4.5-8.4,7.7h39.6c-2.13-3.2-4.93-5.77-8.4-7.7Z"/>
  </g>
</svg>