<?xml version="1.0" encoding="UTF-8"?><svg id="Layer_1" xmlns="http://www.w3.org/2000/svg" viewBox="0 0 491 491"><defs><style>.cls-1{opacity:.2;}.cls-1,.cls-2{fill:#ff4747;}.cls-3{fill:none;stroke:#ff4747;stroke-miterlimit:10;stroke-width:40px;}</style></defs><rect class="cls-1" x="4.25" y="4.25" width="481.5" height="481.5" rx="44.63" ry="44.63"/><rect class="cls-3" x="20" y="20" width="451" height="451" rx="23.45" ry="23.45"/><path class="cls-2" d="M147.3,172h61.8c8,0,15.43,1.97,22.3,5.9,6.87,3.93,12.3,9.3,16.3,16.1s6,14.27,6,22.4c0,10.4-3.6,18.67-10.8,24.8,10.93,6.4,16.4,16.33,16.4,29.8,0,8.53-2.1,16.4-6.3,23.6-4.2,7.2-9.9,12.9-17.1,17.1s-15.07,6.3-23.6,6.3h-65v-146ZM212.3,222.8c1.73-1.73,2.6-3.87,2.6-6.4s-.87-4.63-2.6-6.3c-1.73-1.67-3.87-2.5-6.4-2.5h-19.8v17.8h19.8c2.53,0,4.67-.87,6.4-2.6ZM217.6,278.3c1.93-1.93,2.9-4.37,2.9-7.3,0-2.53-1-4.83-3-6.9-2-2.07-4.4-3.1-7.2-3.1h-24.2v20.2h24.2c2.93,0,5.37-.97,7.3-2.9Z"/><path class="cls-2" d="M271.3,211.6h32v20.4l6.8-2.8v88.8h-38.8v-106.4ZM295.7,242.2c3.33-8.93,8.37-16.27,15.1-22,6.73-5.73,14.9-8.6,24.5-8.6h7.4v35.6h-19.4c-3.33,0-6.37,1.33-9.1,4-2.73,2.67-4.1,5.73-4.1,9.2l-19.4,9.2c0-9.33,1.67-18.46,5-27.4Z"/></svg>