<?xml version="1.0" encoding="UTF-8"?><svg id="Layer_1" xmlns="http://www.w3.org/2000/svg" viewBox="0 0 491 491.75"><defs><style>.cls-1{fill:none;stroke:#7ed957;stroke-miterlimit:10;stroke-width:40px;}.cls-2{opacity:.2;}.cls-2,.cls-3{fill:#7ed957;}</style></defs><rect class="cls-2" x="5.25" y="0" width="481.5" height="481.5" rx="44.63" ry="44.63"/><rect class="cls-1" x="20" y="20.75" width="451" height="451" rx="23.45" ry="23.45"/><path class="cls-3" d="M149,311.45c-11.13-6.8-19.93-16.03-26.4-27.7-6.47-11.67-9.7-24.37-9.7-38.1s3.23-26.43,9.7-38.1c6.46-11.67,15.27-20.9,26.4-27.7,11.13-6.8,23.23-10.2,36.3-10.2,11.2,0,21.73,2.57,31.6,7.7,9.87,5.13,18.2,12.2,25,21.2s11.4,19.1,13.8,30.3l-33.2,4.2c-2.4-7.73-6.8-14.1-13.2-19.1-6.4-5-13.53-7.5-21.4-7.5-6.53,0-12.57,1.77-18.1,5.3-5.53,3.53-9.93,8.3-13.2,14.3-3.27,6-4.9,12.53-4.9,19.6s1.63,13.6,4.9,19.6c3.27,6,7.67,10.77,13.2,14.3,5.53,3.53,11.57,5.3,18.1,5.3,7.87,0,15-2.5,21.4-7.5,6.4-5,10.8-11.37,13.2-19.1l33.2,4c-2.4,11.2-7,21.33-13.8,30.4-6.8,9.07-15.13,16.17-25,21.3-9.87,5.13-20.4,7.7-31.6,7.7-13.07,0-25.17-3.4-36.3-10.2Z"/><path class="cls-3" d="M295.6,314.15c-8.6-5.13-15.43-12.03-20.5-20.7-5.07-8.67-7.6-18-7.6-28s2.53-19.3,7.6-27.9c5.07-8.6,11.9-15.43,20.5-20.5,8.6-5.07,17.96-7.6,28.1-7.6s19.67,2.54,27.8,7.6c8.13,5.07,14.43,11.9,18.9,20.5,4.47,8.6,6.7,17.97,6.7,28.1,0,5.47-.4,10.33-1.2,14.6h-71.4c2.13,3.2,4.87,5.7,8.2,7.5,3.33,1.8,7.2,2.7,11.6,2.7,4.13,0,7.57-.37,10.3-1.1,2.73-.73,5.37-2.1,7.9-4.1l28,14.8c-5.33,7.07-12.07,12.47-20.2,16.2-8.13,3.73-17,5.6-26.6,5.6-10.13,0-19.5-2.57-28.1-7.7ZM335.7,244.75c-3.47-1.93-7.27-2.9-11.4-2.9s-7.93.97-11.4,2.9c-3.47,1.93-6.27,4.5-8.4,7.7h39.6c-2.13-3.2-4.93-5.77-8.4-7.7Z"/></svg>