<?xml version="1.0" encoding="UTF-8"?><svg id="Layer_1" xmlns="http://www.w3.org/2000/svg" viewBox="0 0 491 491"><defs><style>.cls-1{fill:none;stroke:#f04e98;stroke-miterlimit:10;stroke-width:40px;}.cls-2,.cls-3{fill:#f04e98;}.cls-3{opacity:.2;}</style></defs><rect class="cls-3" x="4.25" y="4.25" width="481.5" height="481.5" rx="44.63" ry="44.63"/><rect class="cls-1" x="20" y="20" width="451" height="451" rx="23.45" ry="23.45"/><path class="cls-2" d="M145.2,310.7c-11.13-6.8-19.93-16.03-26.4-27.7-6.47-11.67-9.7-24.37-9.7-38.1s3.23-26.43,9.7-38.1c6.47-11.67,15.27-20.9,26.4-27.7,11.13-6.8,23.23-10.2,36.3-10.2,11.2,0,21.73,2.57,31.6,7.7,9.87,5.13,18.2,12.2,25,21.2s11.4,19.1,13.8,30.3l-33.2,4.2c-2.4-7.73-6.8-14.1-13.2-19.1-6.4-5-13.53-7.5-21.4-7.5-6.53,0-12.57,1.77-18.1,5.3-5.53,3.53-9.93,8.3-13.2,14.3-3.27,6-4.9,12.53-4.9,19.6s1.63,13.6,4.9,19.6c3.27,6,7.67,10.77,13.2,14.3,5.53,3.53,11.57,5.3,18.1,5.3,7.87,0,15-2.5,21.4-7.5,6.4-5,10.8-11.37,13.2-19.1l33.2,4c-2.4,11.2-7,21.33-13.8,30.4-6.8,9.07-15.13,16.17-25,21.3-9.87,5.13-20.4,7.7-31.6,7.7-13.07,0-25.17-3.4-36.3-10.2Z"/><path class="cls-2" d="M292.7,313.5c-9.07-5.07-16.23-11.9-21.5-20.5-5.27-8.6-7.9-18.03-7.9-28.3s2.63-19.5,7.9-28.1c5.27-8.6,12.43-15.4,21.5-20.4,9.07-5,18.93-7.5,29.6-7.5s20.47,2.5,29.4,7.5c8.93,5,16.03,11.8,21.3,20.4,5.27,8.6,7.9,17.97,7.9,28.1s-2.63,19.7-7.9,28.3c-5.27,8.6-12.37,15.43-21.3,20.5-8.93,5.07-18.73,7.6-29.4,7.6s-20.53-2.53-29.6-7.6ZM336.3,279.1c3.87-3.87,5.8-8.6,5.8-14.2s-1.93-10.33-5.8-14.2c-3.87-3.87-8.6-5.8-14.2-5.8s-10.33,1.93-14.2,5.8-5.8,8.6-5.8,14.2,1.93,10.33,5.8,14.2c3.87,3.87,8.6,5.8,14.2,5.8s10.33-1.93,14.2-5.8Z"/></svg>