<?xml version="1.0" encoding="UTF-8"?><svg id="Layer_1" xmlns="http://www.w3.org/2000/svg" viewBox="0 0 491 491"><defs><style>.cls-1{fill:none;stroke:#29b6f6;stroke-miterlimit:10;stroke-width:40px;}.cls-2{opacity:.2;}.cls-2,.cls-3{fill:#29b6f6;}</style></defs><rect class="cls-2" x="4.25" y="4.25" width="481.5" height="481.5" rx="44.63" ry="44.63"/><rect class="cls-1" x="20" y="20" width="451" height="451" rx="23.45" ry="23.45"/><path class="cls-3" d="M156.4,172h51.4c13.2,0,25.4,3.27,36.6,9.8,11.2,6.53,20.07,15.4,26.6,26.6,6.53,11.2,9.8,23.4,9.8,36.6s-3.27,25.4-9.8,36.6c-6.53,11.2-15.4,20.07-26.6,26.6-11.2,6.53-23.4,9.8-36.6,9.8h-51.4v-146ZM223.1,278.1c5.8-3.4,10.4-8.03,13.8-13.9,3.4-5.87,5.1-12.27,5.1-19.2s-1.7-13.33-5.1-19.2c-3.4-5.87-8-10.5-13.8-13.9-5.8-3.4-12.23-5.1-19.3-5.1h-8.6v76.4h8.6c7.07,0,13.5-1.7,19.3-5.1Z"/><path class="cls-3" d="M294.8,175.6h38.8v28.2h-38.8v-28.2ZM294.8,211.6h38.8v106.4h-38.8v-106.4Z"/></svg>