<?xml version="1.0" encoding="UTF-8"?><svg id="Layer_1" xmlns="http://www.w3.org/2000/svg" viewBox="0 0 491 491.75"><defs><style>.cls-1{opacity:.2;}.cls-1,.cls-2{fill:#ff4fa7;}.cls-3{fill:none;stroke:#ff4fa7;stroke-miterlimit:10;stroke-width:40px;}</style></defs><rect class="cls-1" x="5.25" y="0" width="481.5" height="481.5" rx="44.63" ry="44.63"/><rect class="cls-3" x="20" y="20.75" width="451" height="451" rx="23.45" ry="23.45"/><path class="cls-2" d="M157.2,172.75h98.2v35.6h-59.2v21h52.4v32.8h-52.4v56.6h-39v-146Z"/><path class="cls-2" d="M261.4,212.35h32v20.4l6.8-2.8v88.8h-38.8v-106.4ZM285.8,242.95c3.33-8.93,8.37-16.27,15.1-22,6.73-5.73,14.9-8.6,24.5-8.6h7.4v35.6h-19.4c-3.33,0-6.37,1.33-9.1,4-2.73,2.67-4.1,5.73-4.1,9.2l-19.4,9.2c0-9.33,1.67-18.46,5-27.4Z"/></svg>