<?xml version="1.0" encoding="UTF-8"?><svg id="Layer_1" xmlns="http://www.w3.org/2000/svg" viewBox="0 0 491 491"><defs><style>.cls-1{fill:none;stroke:#e73cf5;stroke-miterlimit:10;stroke-width:40px;}.cls-2{opacity:.2;}.cls-2,.cls-3{fill:#e73cf5;}</style></defs><rect class="cls-2" x="4.25" y="4.25" width="481.5" height="481.5" rx="44.63" ry="44.63"/><rect class="cls-1" x="20" y="20" width="451" height="451" rx="23.45" ry="23.45"/><path class="cls-3" d="M145.5,310.7c-11.13-6.8-19.93-16.03-26.4-27.7-6.47-11.67-9.7-24.37-9.7-38.1s3.23-26.43,9.7-38.1c6.47-11.67,15.27-20.9,26.4-27.7,11.13-6.8,23.23-10.2,36.3-10.2,14.8,0,28.23,4.33,40.3,13,12.07,8.67,20.83,19.93,26.3,33.8l-31.4,11.2c-3.07-6.4-7.5-11.53-13.3-15.4-5.8-3.87-12.23-5.8-19.3-5.8-6.53,0-12.57,1.77-18.1,5.3-5.53,3.53-9.93,8.3-13.2,14.3-3.27,6-4.9,12.53-4.9,19.6s1.63,13.6,4.9,19.6c3.27,6,7.67,10.77,13.2,14.3,5.53,3.53,11.57,5.3,18.1,5.3,7.87,0,15-2.5,21.4-7.5,6.4-5,10.8-11.37,13.2-19.1l35-12.6c0,13.73-3.23,26.43-9.7,38.1-6.47,11.67-15.23,20.9-26.3,27.7-11.07,6.8-23.13,10.2-36.2,10.2s-25.17-3.4-36.3-10.2ZM172,234.3h82v10.6l-4.2,20.2h-77.8v-30.8Z"/><path class="cls-3" d="M291.1,313.4c-8.6-5.13-15.43-12-20.5-20.6-5.07-8.6-7.6-17.97-7.6-28.1s2.53-19.3,7.6-27.9c5.07-8.6,11.9-15.43,20.5-20.5,8.6-5.07,17.97-7.6,28.1-7.6,14.13,0,24.67,5.23,31.6,15.7,6.93,10.47,10.4,23.97,10.4,40.5s-3.47,30.03-10.4,40.5c-6.93,10.47-17.47,15.7-31.6,15.7-10.13,0-19.5-2.57-28.1-7.7ZM336,279.1c3.87-3.87,5.8-8.6,5.8-14.2s-1.93-10.33-5.8-14.2c-3.87-3.87-8.6-5.8-14.2-5.8s-10.33,1.93-14.2,5.8c-3.87,3.87-5.8,8.6-5.8,14.2s1.93,10.33,5.8,14.2c3.87,3.87,8.6,5.8,14.2,5.8s10.33-1.93,14.2-5.8ZM341.8,243.7l6.8,3.2v-35.2h32v77.6h-38.8v-45.6ZM348.6,282.9l-6.8,3.2v-45.6h38.8v77.6h-32v-35.2Z"/></svg>