<?xml version="1.0" encoding="UTF-8"?><svg id="Layer_1" xmlns="http://www.w3.org/2000/svg" viewBox="0 0 491 491.75"><defs><style>.cls-1{fill:none;stroke:#4dd0e1;stroke-miterlimit:10;stroke-width:40px;}.cls-2,.cls-3{fill:#4dd0e1;}.cls-3{opacity:.2;}</style></defs><rect class="cls-3" x="5.25" y="0" width="481.5" height="481.5" rx="44.63" ry="44.63"/><rect class="cls-1" x="20" y="20.75" width="451" height="451" rx="23.45" ry="23.45"/><path class="cls-2" d="M148.7,305.45h14.2c2.8,0,5-.8,6.6-2.4,1.6-1.6,2.4-3.67,2.4-6.2v-146.4h38.8v145c0,8.27-1.97,15.9-5.9,22.9-3.93,7-9.27,12.53-16,16.6-6.73,4.07-14.03,6.1-21.9,6.1h-18.2v-35.6Z"/><path class="cls-2" d="M253.1,291.85c-9.07-5.07-16.23-11.9-21.5-20.5-5.27-8.6-7.9-18.03-7.9-28.3s2.63-19.5,7.9-28.1c5.27-8.6,12.43-15.4,21.5-20.4,9.07-5,18.93-7.5,29.6-7.5s20.47,2.5,29.4,7.5c8.93,5,16.03,11.8,21.3,20.4,5.27,8.6,7.9,17.97,7.9,28.1s-2.63,19.7-7.9,28.3c-5.27,8.6-12.37,15.43-21.3,20.5-8.93,5.07-18.73,7.6-29.4,7.6s-20.53-2.53-29.6-7.6ZM296.7,257.45c3.87-3.87,5.8-8.6,5.8-14.2s-1.93-10.33-5.8-14.2c-3.87-3.87-8.6-5.8-14.2-5.8s-10.33,1.93-14.2,5.8-5.8,8.6-5.8,14.2,1.93,10.33,5.8,14.2c3.87,3.87,8.6,5.8,14.2,5.8s10.33-1.93,14.2-5.8Z"/></svg>