<?xml version="1.0" encoding="UTF-8"?>
<svg id="Layer_1" data-name="Layer 1" xmlns="http://www.w3.org/2000/svg" viewBox="0 0 500 500">
  <defs>
    <style>
      .cls-1, .cls-2 {
        fill: #5be7ff;
      }

      .cls-2 {
        opacity: .3;
      }

      .cls-3 {
        fill: none;
        stroke: #5be7ff;
        stroke-miterlimit: 10;
        stroke-width: 40px;
      }
    </style>
  </defs>
  <rect class="cls-2" x="9.25" y="9.25" width="481.5" height="481.5" rx="44.63" ry="44.63"/>
  <rect class="cls-3" x="25" y="25" width="451" height="451" rx="23.45" ry="23.45"/>
  <g>
    <path class="cls-1" d="M105.7,175.5h57.8l22,86,22-86h57.8v146h-36.8v-91l-24.2,74.8h-37.6l-24.2-74.8v91h-36.8v-146Z"/>
    <path class="cls-1" d="M304.8,316.8c-8.6-5.13-15.43-12-20.5-20.6-5.07-8.6-7.6-17.97-7.6-28.1s2.53-19.3,7.6-27.9c5.07-8.6,11.9-15.43,20.5-20.5,8.6-5.07,17.97-7.6,28.1-7.6,14.13,0,24.67,5.23,31.6,15.7,6.93,10.47,10.4,23.97,10.4,40.5s-3.47,30.03-10.4,40.5c-6.93,10.47-17.47,15.7-31.6,15.7-10.13,0-19.5-2.57-28.1-7.7ZM349.7,282.5c3.87-3.87,5.8-8.6,5.8-14.2s-1.93-10.33-5.8-14.2c-3.87-3.87-8.6-5.8-14.2-5.8s-10.33,1.93-14.2,5.8c-3.87,3.87-5.8,8.6-5.8,14.2s1.93,10.33,5.8,14.2c3.87,3.87,8.6,5.8,14.2,5.8s10.33-1.93,14.2-5.8ZM355.5,247.1l6.8,3.2v-35.2h32v77.6h-38.8v-45.6ZM362.3,286.3l-6.8,3.2v-45.6h38.8v77.6h-32v-35.2Z"/>
  </g>
</svg>