<?xml version="1.0" encoding="UTF-8"?><svg id="Layer_1" xmlns="http://www.w3.org/2000/svg" viewBox="0 0 491 491"><defs><style>.cls-1{opacity:.3;}.cls-1,.cls-2{fill:#0d0d0d;}.cls-3{fill:none;stroke:#0d0d0d;stroke-miterlimit:10;stroke-width:40px;}</style></defs><rect class="cls-1" x="4.25" y="4.25" width="481.5" height="481.5" rx="44.63" ry="44.63"/><rect class="cls-3" x="20" y="20" width="451" height="451" rx="23.45" ry="23.45"/><path class="cls-2" d="M115.3,172h57.8l22,86,22-86h57.8v146h-36.8v-91l-24.2,74.8h-37.6l-24.2-74.8v91h-36.8v-146Z"/><path class="cls-2" d="M307.9,247.6h-22v-36h86.8v35.6h-26v31.2c0,1.2.4,2.17,1.2,2.9.8.73,1.87,1.1,3.2,1.1h23.6v35.6h-26c-7.47,0-14.3-1.73-20.5-5.2-6.2-3.47-11.13-8.2-14.8-14.2-3.67-6-5.5-12.73-5.5-20.2v-30.8ZM307.9,211.6v-31.6h38.8v31.6h-38.8Z"/></svg>