<?xml version="1.0" encoding="UTF-8"?><svg id="Layer_1" xmlns="http://www.w3.org/2000/svg" viewBox="0 0 491 491"><defs><style>.cls-1,.cls-2{fill:#a200ff;}.cls-2{opacity:.3;}.cls-3{fill:none;stroke:#a200ff;stroke-miterlimit:10;stroke-width:40px;}</style></defs><rect class="cls-2" x="4.25" y="4.25" width="481.5" height="481.5" rx="44.63" ry="44.63"/><rect class="cls-3" x="20" y="20" width="451" height="451" rx="23.45" ry="23.45"/><path class="cls-1" d="M164.7,172h55.6c9.73,0,18.77,2.43,27.1,7.3,8.33,4.87,14.93,11.47,19.8,19.8,4.87,8.33,7.3,17.37,7.3,27.1s-2.43,18.97-7.3,27.3c-4.87,8.33-11.47,14.93-19.8,19.8-8.33,4.87-17.37,7.3-27.1,7.3h-16.8v37.4h-38.8v-146ZM203.5,245h14.2c4.8,0,9-1.87,12.6-5.6,3.6-3.73,5.4-8.13,5.4-13.2s-1.8-9.27-5.4-13c-3.6-3.73-7.8-5.6-12.6-5.6h-14.2v37.4Z"/><path class="cls-1" d="M286.5,175.6h38.8v28.2h-38.8v-28.2ZM286.5,211.6h38.8v106.4h-38.8v-106.4Z"/></svg>