<?xml version="1.0" encoding="UTF-8"?><svg id="Layer_1" xmlns="http://www.w3.org/2000/svg" viewBox="0 0 491 491"><defs><style>.cls-1,.cls-2{fill:#f29f05;}.cls-2{opacity:.2;}.cls-3{fill:none;stroke:#f29f05;stroke-miterlimit:10;stroke-width:40px;}</style></defs><rect class="cls-2" x="4.25" y="4.25" width="481.5" height="481.5" rx="44.63" ry="44.63"/><rect class="cls-3" x="20" y="20" width="451" height="451" rx="23.45" ry="23.45"/><path class="cls-1" d="M145.5,298c-11.67-6.8-20.93-16.03-27.8-27.7-6.87-11.67-10.3-24.43-10.3-38.3s3.43-26.4,10.3-38c6.87-11.6,16.13-20.8,27.8-27.6,11.67-6.8,24.43-10.2,38.3-10.2s26.43,3.4,38.1,10.2c11.67,6.8,20.93,16,27.8,27.6,6.87,11.6,10.3,24.27,10.3,38s-3.43,26.63-10.3,38.3c-6.87,11.67-16.13,20.9-27.8,27.7-11.67,6.8-24.37,10.2-38.1,10.2s-26.63-3.4-38.3-10.2ZM202.6,266.1c5.73-3.53,10.27-8.3,13.6-14.3,3.33-6,5-12.6,5-19.8s-1.67-13.57-5-19.5c-3.33-5.93-7.87-10.67-13.6-14.2-5.73-3.53-12-5.3-18.8-5.3s-13.3,1.77-19.1,5.3c-5.8,3.53-10.4,8.27-13.8,14.2-3.4,5.93-5.1,12.43-5.1,19.5s1.7,13.8,5.1,19.8c3.4,6,8,10.77,13.8,14.3,5.8,3.53,12.17,5.3,19.1,5.3s13.07-1.77,18.8-5.3ZM189.6,309.9c-1.6-1.13-3.53-1.7-5.8-1.7l4.8-11.8c8.13,0,14.87.27,20.2.8,5.33.53,10.13,1.9,14.4,4.1,4.27,2.2,7.13,5.57,8.6,10.1l4.2,11.2-35.4,11.2-7-18c-1.07-2.8-2.4-4.77-4-5.9Z"/><path class="cls-1" d="M301.1,300.7c-8.6-5.13-15.43-12.03-20.5-20.7-5.07-8.67-7.6-18-7.6-28s2.53-19.3,7.6-27.9c5.07-8.6,11.9-15.43,20.5-20.5,8.6-5.07,17.96-7.6,28.1-7.6s19.67,2.54,27.8,7.6c8.13,5.07,14.43,11.9,18.9,20.5,4.47,8.6,6.7,17.97,6.7,28.1,0,5.47-.4,10.33-1.2,14.6h-71.4c2.13,3.2,4.87,5.7,8.2,7.5,3.33,1.8,7.2,2.7,11.6,2.7,4.13,0,7.57-.37,10.3-1.1,2.73-.73,5.37-2.1,7.9-4.1l28,14.8c-5.33,7.07-12.07,12.47-20.2,16.2-8.13,3.73-17,5.6-26.6,5.6-10.13,0-19.5-2.57-28.1-7.7ZM341.2,231.3c-3.47-1.93-7.27-2.9-11.4-2.9s-7.93.97-11.4,2.9c-3.47,1.93-6.27,4.5-8.4,7.7h39.6c-2.13-3.2-4.93-5.77-8.4-7.7Z"/></svg>