<?xml version="1.0" encoding="UTF-8"?><svg id="Layer_1" xmlns="http://www.w3.org/2000/svg" viewBox="0 0 491 491.75"><defs><style>.cls-1,.cls-2{fill:#ff6f91;}.cls-3{fill:none;stroke:#ff6f91;stroke-miterlimit:10;stroke-width:40px;}.cls-2{opacity:.2;}</style></defs><rect class="cls-2" x="5.25" y="0" width="481.5" height="481.5" rx="44.63" ry="44.63"/><rect class="cls-3" x="20" y="20.75" width="451" height="451" rx="23.45" ry="23.45"/><path class="cls-1" d="M123.9,171.25h55.6c9.73,0,18.77,2.43,27.1,7.3,8.33,4.87,14.93,11.47,19.8,19.8,4.87,8.33,7.3,17.37,7.3,27.1s-2.4,18.27-7.2,25.6c-4.8,7.33-11.33,13-19.6,17-8.27,4-17.4,6-27.4,6h-16.8v43.2h-38.8v-146ZM186.7,279.55c-1.07-1.53-2.67-2.8-4.8-3.8-2.13-1-5.07-1.5-8.8-1.5h-16.4v-18h28c8.13,0,14.57.5,19.3,1.5,4.73,1,8.93,3.23,12.6,6.7,3.67,3.47,6.97,8.87,9.9,16.2l15,36.6h-38.4l-13-31c-1.2-2.93-2.33-5.17-3.4-6.7ZM189.5,238.65c3.6-3.73,5.4-8.13,5.4-13.2s-1.8-9.27-5.4-13c-3.6-3.73-7.8-5.6-12.6-5.6h-14.2v37.4h14.2c4.8,0,9-1.87,12.6-5.6Z"/><path class="cls-1" d="M276.6,312.55c-8.6-5.13-15.43-12-20.5-20.6-5.07-8.6-7.6-17.97-7.6-28.1s2.53-19.3,7.6-27.9c5.07-8.6,11.9-15.43,20.5-20.5,8.6-5.07,17.97-7.6,28.1-7.6,14.13,0,24.67,5.23,31.6,15.7,6.93,10.47,10.4,23.97,10.4,40.5s-3.47,30.03-10.4,40.5c-6.93,10.47-17.47,15.7-31.6,15.7-10.13,0-19.5-2.57-28.1-7.7ZM321.5,278.25c3.87-3.87,5.8-8.6,5.8-14.2s-1.93-10.33-5.8-14.2c-3.87-3.87-8.6-5.8-14.2-5.8s-10.33,1.93-14.2,5.8c-3.87,3.87-5.8,8.6-5.8,14.2s1.93,10.33,5.8,14.2c3.87,3.87,8.6,5.8,14.2,5.8s10.33-1.93,14.2-5.8ZM327.3,242.85l6.8,3.2v-35.2h32v77.6h-38.8v-45.6ZM334.1,282.05l-6.8,3.2v-45.6h38.8v77.6h-32v-35.2Z"/></svg>