<?xml version="1.0" encoding="UTF-8"?><svg id="Layer_1" xmlns="http://www.w3.org/2000/svg" viewBox="0 0 491 491"><defs><style>.cls-1{fill:none;stroke:#6c63ff;stroke-miterlimit:10;stroke-width:40px;}.cls-2{opacity:.3;}.cls-2,.cls-3{fill:#6c63ff;}</style></defs><rect class="cls-2" x="4.25" y="4.25" width="481.5" height="481.5" rx="44.63" ry="44.63"/><rect class="cls-1" x="20" y="20" width="451" height="451" rx="23.45" ry="23.45"/><path class="cls-3" d="M127.4,170.5h55.6c9.73,0,18.77,2.43,27.1,7.3,8.33,4.87,14.93,11.47,19.8,19.8,4.87,8.33,7.3,17.37,7.3,27.1s-2.4,18.27-7.2,25.6c-4.8,7.33-11.33,13-19.6,17-8.27,4-17.4,6-27.4,6h-16.8v43.2h-38.8v-146ZM190.2,278.8c-1.07-1.53-2.67-2.8-4.8-3.8-2.13-1-5.07-1.5-8.8-1.5h-16.4v-18h28c8.13,0,14.57.5,19.3,1.5,4.73,1,8.93,3.23,12.6,6.7,3.67,3.47,6.96,8.87,9.9,16.2l15,36.6h-38.4l-13-31c-1.2-2.93-2.33-5.17-3.4-6.7ZM193,237.9c3.6-3.73,5.4-8.13,5.4-13.2s-1.8-9.27-5.4-13c-3.6-3.73-7.8-5.6-12.6-5.6h-14.2v37.4h14.2c4.8,0,9-1.87,12.6-5.6Z"/><path class="cls-3" d="M281.1,311.8c-8.6-5.13-15.43-12.03-20.5-20.7-5.07-8.67-7.6-18-7.6-28s2.53-19.3,7.6-27.9c5.07-8.6,11.9-15.43,20.5-20.5,8.6-5.07,17.96-7.6,28.1-7.6s19.67,2.54,27.8,7.6c8.13,5.07,14.43,11.9,18.9,20.5,4.47,8.6,6.7,17.97,6.7,28.1,0,5.47-.4,10.33-1.2,14.6h-71.4c2.13,3.2,4.87,5.7,8.2,7.5,3.33,1.8,7.2,2.7,11.6,2.7,4.13,0,7.57-.37,10.3-1.1,2.73-.73,5.37-2.1,7.9-4.1l28,14.8c-5.33,7.07-12.07,12.47-20.2,16.2-8.13,3.73-17,5.6-26.6,5.6-10.13,0-19.5-2.57-28.1-7.7ZM321.2,242.4c-3.47-1.93-7.27-2.9-11.4-2.9s-7.93.97-11.4,2.9c-3.47,1.93-6.27,4.5-8.4,7.7h39.6c-2.13-3.2-4.93-5.77-8.4-7.7Z"/></svg>