<?xml version="1.0" encoding="UTF-8"?><svg id="Layer_1" xmlns="http://www.w3.org/2000/svg" viewBox="0 0 491 491.75"><defs><style>.cls-1,.cls-2{fill:#6be6cf;}.cls-2{opacity:.2;}.cls-3{fill:none;stroke:#6be6cf;stroke-miterlimit:10;stroke-width:40px;}</style></defs><rect class="cls-2" x="5.25" y="0" width="481.5" height="481.5" rx="44.63" ry="44.63"/><rect class="cls-3" x="20" y="20.75" width="451" height="451" rx="23.45" ry="23.45"/><path class="cls-1" d="M161.8,172.75h55.6c9.73,0,18.77,2.43,27.1,7.3,8.33,4.87,14.93,11.47,19.8,19.8,4.87,8.33,7.3,17.37,7.3,27.1s-2.4,18.27-7.2,25.6c-4.8,7.33-11.33,13-19.6,17-8.27,4-17.4,6-27.4,6h-16.8v43.2h-38.8v-146ZM224.6,281.05c-1.07-1.53-2.67-2.8-4.8-3.8-2.13-1-5.07-1.5-8.8-1.5h-16.4v-18h28c8.13,0,14.57.5,19.3,1.5,4.73,1,8.93,3.23,12.6,6.7,3.67,3.47,6.97,8.87,9.9,16.2l15,36.6h-38.4l-13-31c-1.2-2.93-2.33-5.17-3.4-6.7ZM227.4,240.15c3.6-3.73,5.4-8.13,5.4-13.2s-1.8-9.27-5.4-13c-3.6-3.73-7.8-5.6-12.6-5.6h-14.2v37.4h14.2c4.8,0,9-1.87,12.6-5.6Z"/><path class="cls-1" d="M289.4,176.35h38.8v28.2h-38.8v-28.2ZM289.4,212.35h38.8v106.4h-38.8v-106.4Z"/></svg>