<?xml version="1.0" encoding="UTF-8"?><svg id="Layer_1" xmlns="http://www.w3.org/2000/svg" viewBox="0 0 491 491"><defs><style>.cls-1,.cls-2{fill:#f6c700;}.cls-2{opacity:.2;}.cls-3{fill:none;stroke:#f6c700;stroke-miterlimit:10;stroke-width:40px;}</style></defs><rect class="cls-2" x="4.25" y="4.25" width="481.5" height="481.5" rx="44.63" ry="44.63"/><rect class="cls-3" x="20" y="20" width="451" height="451" rx="23.45" ry="23.45"/><path class="cls-1" d="M154.2,316.9c-10.93-2.67-20.33-6.13-28.2-10.4l13.2-32.8c5.6,2.8,12.8,5.3,21.6,7.5,8.8,2.2,16.47,3.3,23,3.3s11.7-.73,15.9-2.2c4.2-1.47,6.3-3.6,6.3-6.4,0-2.4-1.3-4.23-3.9-5.5-2.6-1.27-7.04-2.7-13.3-4.3l-9.8-2.8c-13.33-4-23.7-8.23-31.1-12.7-7.4-4.47-12.57-9.53-15.5-15.2-2.93-5.67-4.4-12.43-4.4-20.3,0-9.33,2.63-17.47,7.9-24.4,5.27-6.93,12.57-12.3,21.9-16.1,9.33-3.8,19.93-5.7,31.8-5.7,15.33,0,32,3.33,50,10l-13,33.6c-14.13-4.8-26.6-7.2-37.4-7.2-6.67,0-12.07.87-16.2,2.6-4.13,1.73-6.2,4.13-6.2,7.2,0,2.13.77,3.83,2.3,5.1,1.53,1.27,3.87,2.4,7,3.4,3.13,1,8.7,2.5,16.7,4.5,14,3.47,24.8,7.47,32.4,12,7.6,4.53,12.77,9.4,15.5,14.6,2.73,5.2,4.1,11.07,4.1,17.6,0,9.87-2.53,18.47-7.6,25.8-5.07,7.33-12.1,12.97-21.1,16.9-9,3.93-19.3,5.9-30.9,5.9-9.73,0-20.07-1.33-31-4Z"/><path class="cls-1" d="M282.5,313.4c-8.6-5.13-15.43-12.03-20.5-20.7-5.07-8.67-7.6-18-7.6-28s2.53-19.3,7.6-27.9c5.07-8.6,11.9-15.43,20.5-20.5,8.6-5.07,17.96-7.6,28.1-7.6s19.67,2.54,27.8,7.6c8.13,5.07,14.43,11.9,18.9,20.5,4.47,8.6,6.7,17.97,6.7,28.1,0,5.47-.4,10.33-1.2,14.6h-71.4c2.13,3.2,4.87,5.7,8.2,7.5,3.33,1.8,7.2,2.7,11.6,2.7,4.13,0,7.57-.37,10.3-1.1,2.73-.73,5.37-2.1,7.9-4.1l28,14.8c-5.33,7.07-12.07,12.47-20.2,16.2-8.13,3.73-17,5.6-26.6,5.6-10.13,0-19.5-2.57-28.1-7.7ZM322.6,244c-3.47-1.93-7.27-2.9-11.4-2.9s-7.93.97-11.4,2.9c-3.47,1.93-6.27,4.5-8.4,7.7h39.6c-2.13-3.2-4.93-5.77-8.4-7.7Z"/></svg>