<?xml version="1.0" encoding="UTF-8"?><svg id="Layer_1" xmlns="http://www.w3.org/2000/svg" viewBox="0 0 491 491"><defs><style>.cls-1,.cls-2{fill:#8e79ff;}.cls-2{opacity:.2;}.cls-3{fill:none;stroke:#8e79ff;stroke-miterlimit:10;stroke-width:40px;}</style></defs><rect class="cls-2" x="4.25" y="4.25" width="481.5" height="481.5" rx="44.63" ry="44.63"/><rect class="cls-3" x="20" y="20" width="451" height="451" rx="23.45" ry="23.45"/><path class="cls-1" d="M150.7,316.9c-10.93-2.67-20.33-6.13-28.2-10.4l13.2-32.8c5.6,2.8,12.8,5.3,21.6,7.5,8.8,2.2,16.47,3.3,23,3.3s11.7-.73,15.9-2.2c4.2-1.47,6.3-3.6,6.3-6.4,0-2.4-1.3-4.23-3.9-5.5-2.6-1.27-7.03-2.7-13.3-4.3l-9.8-2.8c-13.33-4-23.7-8.23-31.1-12.7-7.4-4.47-12.57-9.53-15.5-15.2-2.93-5.67-4.4-12.43-4.4-20.3,0-9.33,2.63-17.47,7.9-24.4,5.27-6.93,12.57-12.3,21.9-16.1,9.33-3.8,19.93-5.7,31.8-5.7,15.33,0,32,3.33,50,10l-13,33.6c-14.13-4.8-26.6-7.2-37.4-7.2-6.67,0-12.07.87-16.2,2.6-4.13,1.73-6.2,4.13-6.2,7.2,0,2.13.77,3.83,2.3,5.1,1.53,1.27,3.87,2.4,7,3.4,3.13,1,8.7,2.5,16.7,4.5,14,3.47,24.8,7.47,32.4,12,7.6,4.53,12.77,9.4,15.5,14.6,2.73,5.2,4.1,11.07,4.1,17.6,0,9.87-2.53,18.47-7.6,25.8-5.07,7.33-12.1,12.97-21.1,16.9-9,3.93-19.3,5.9-30.9,5.9-9.73,0-20.07-1.33-31-4Z"/><path class="cls-1" d="M279.3,313.5c-9.07-5.07-16.23-11.9-21.5-20.5-5.27-8.6-7.9-18.03-7.9-28.3s2.63-19.5,7.9-28.1c5.27-8.6,12.43-15.4,21.5-20.4,9.07-5,18.93-7.5,29.6-7.5s20.47,2.5,29.4,7.5c8.93,5,16.03,11.8,21.3,20.4,5.27,8.6,7.9,17.97,7.9,28.1s-2.63,19.7-7.9,28.3c-5.27,8.6-12.37,15.43-21.3,20.5-8.93,5.07-18.73,7.6-29.4,7.6s-20.53-2.53-29.6-7.6ZM322.9,279.1c3.87-3.87,5.8-8.6,5.8-14.2s-1.93-10.33-5.8-14.2c-3.87-3.87-8.6-5.8-14.2-5.8s-10.33,1.93-14.2,5.8-5.8,8.6-5.8,14.2,1.93,10.33,5.8,14.2c3.87,3.87,8.6,5.8,14.2,5.8s10.33-1.93,14.2-5.8Z"/></svg>