<?xml version="1.0" encoding="UTF-8"?><svg id="Layer_1" xmlns="http://www.w3.org/2000/svg" viewBox="0 0 491 491.75"><defs><style>.cls-1{fill:none;stroke:#e0a414;stroke-miterlimit:10;stroke-width:40px;}.cls-2,.cls-3{fill:#e0a414;}.cls-3{opacity:.2;}</style></defs><rect class="cls-3" x="5.25" y="0" width="481.5" height="481.5" rx="44.63" ry="44.63"/><rect class="cls-1" x="20" y="20.75" width="451" height="451" rx="23.45" ry="23.45"/><path class="cls-2" d="M147.9,313.35c-9.27-5.4-16.6-12.73-22-22-5.4-9.27-8.1-19.37-8.1-30.3v-86.8h38.8v88.8c0,5.87,2.13,10.93,6.4,15.2,4.27,4.27,9.33,6.4,15.2,6.4s10.93-2.13,15.2-6.4c4.27-4.27,6.4-9.33,6.4-15.2v-88.8h38.8v86.8c0,10.93-2.7,21.03-8.1,30.3-5.4,9.27-12.73,16.6-22,22-9.27,5.4-19.37,8.1-30.3,8.1s-21.03-2.7-30.3-8.1Z"/><path class="cls-2" d="M254.6,168.25h38.8v134.4l-6.8-2.8v20.4h-32v-152ZM284.4,307.55c-6.93-10.47-10.4-23.97-10.4-40.5s3.47-30.03,10.4-40.5c6.93-10.47,17.47-15.7,31.6-15.7,10.13,0,19.5,2.54,28.1,7.6,8.6,5.07,15.43,11.9,20.5,20.5,5.07,8.6,7.6,17.9,7.6,27.9s-2.54,19.5-7.6,28.1c-5.07,8.6-11.9,15.47-20.5,20.6-8.6,5.13-17.97,7.7-28.1,7.7-14.13,0-24.67-5.23-31.6-15.7ZM327.6,281.25c3.87-3.87,5.8-8.6,5.8-14.2s-1.93-10.33-5.8-14.2c-3.87-3.87-8.6-5.8-14.2-5.8s-10.33,1.93-14.2,5.8-5.8,8.6-5.8,14.2,1.93,10.33,5.8,14.2c3.87,3.87,8.6,5.8,14.2,5.8s10.33-1.93,14.2-5.8Z"/></svg>