<?xml version="1.0" encoding="UTF-8"?><svg id="Layer_1" xmlns="http://www.w3.org/2000/svg" viewBox="0 0 491 491"><defs><style>.cls-1{fill:none;stroke:#3fe56a;stroke-miterlimit:10;stroke-width:40px;}.cls-2,.cls-3{fill:#3fe56a;}.cls-3{opacity:.2;}</style></defs><rect class="cls-3" x="4.25" y="4.25" width="481.5" height="481.5" rx="44.63" ry="44.63"/><rect class="cls-1" x="20" y="20" width="451" height="451" rx="23.45" ry="23.45"/><path class="cls-2" d="M120.7,316.5l93.2-146h45.2l-93.2,146h-45.2ZM213.9,316.5l-93.2-146h45.2l93.2,146h-45.2Z"/><path class="cls-2" d="M287.8,311.8c-8.6-5.13-15.43-12.03-20.5-20.7-5.07-8.67-7.6-18-7.6-28s2.53-19.3,7.6-27.9c5.07-8.6,11.9-15.43,20.5-20.5,8.6-5.07,17.96-7.6,28.1-7.6s19.67,2.54,27.8,7.6c8.13,5.07,14.43,11.9,18.9,20.5,4.47,8.6,6.7,17.97,6.7,28.1,0,5.47-.4,10.33-1.2,14.6h-71.4c2.13,3.2,4.87,5.7,8.2,7.5,3.33,1.8,7.2,2.7,11.6,2.7,4.13,0,7.57-.37,10.3-1.1,2.73-.73,5.37-2.1,7.9-4.1l28,14.8c-5.33,7.07-12.07,12.47-20.2,16.2-8.13,3.73-17,5.6-26.6,5.6-10.13,0-19.5-2.57-28.1-7.7ZM327.9,242.4c-3.47-1.93-7.27-2.9-11.4-2.9s-7.93.97-11.4,2.9c-3.47,1.93-6.27,4.5-8.4,7.7h39.6c-2.13-3.2-4.93-5.77-8.4-7.7Z"/><rect class="cls-2" x="189.49" y="233.57" width="37.45" height="77" transform="translate(-114.2 156.19) rotate(-32.8)"/></svg>